<svg width="5em" height="5em" xmlns="http://www.w3.org/2000/svg" preserveAspectRatio="xMidYMid meet">
  <g fill="#000000">
      <path d="m0.69667,28.92542c0.07666,-0.12777 1.73765,-2.95784 3.6925,-6.2862c1.95486,-3.32837 3.62223,-6.16802 3.70528,-6.30856c1.12117,-1.88458 7.88969,-13.44123 7.88969,-13.46998c0,-0.02236 0.02555,0.00958 0.06069,0.07027c0.04472,0.08305 14.27492,24.31751 15.24276,25.96253c0.08624,0.14693 0.14693,0.25873 0.13416,0.25234c-0.01597,-0.00639 -1.55239,-0.95826 -3.421,-2.11137c-1.86542,-1.15311 -3.40822,-2.09221 -3.42419,-2.08582c-0.01597,0.00319 -0.04791,-0.01597 -0.07027,-0.04791c-0.03514,-0.04472 -8.37841,-5.21295 -8.48062,-5.25447c-0.01917,-0.00958 -3.49766,2.12415 -7.72998,4.73701c-4.22913,2.61286 -7.70124,4.75618 -7.71721,4.76256c-0.01278,0.00958 0.03833,-0.08944 0.11819,-0.2204l0,0zm10.46742,-9.27598c1.78237,-1.09881 3.59348,-2.21997 4.0247,-2.49148c0.43441,-0.27151 0.79855,-0.49191 0.81133,-0.49191c0.01278,0 0.31942,0.18526 0.68356,0.41205c1.16269,0.72509 7.3882,4.57091 7.40418,4.57091c0.00639,0 0.00958,-0.02555 0.00319,-0.0575c-0.01597,-0.09902 -8.05579,-13.70635 -8.09093,-13.69677c-0.03833,0.00958 -4.99255,8.38799 -4.99574,8.44868c-0.00319,0.02555 -0.02236,0.06069 -0.04791,0.07986c-0.0543,0.04472 -3.00575,5.05324 -3.03769,5.15545c-0.00958,0.03833 -0.01278,0.07027 -0.00639,0.07027c0.00958,0 1.47253,-0.90077 3.2517,-1.99957l0,0l0,0.00001z" id="svg_1" fill="#000" stroke="null" />
  </g>
</svg>
