<svg width="32" height="32" xmlns="http://www.w3.org/2000/svg" preserveAspectRatio="xMidYMid meet">
 <g>
  <title>success</title>
   <path stroke="null" fill='#000' d="m15.94846,30.72016c-0.01357,-0.03529 -0.03801,-0.2199 -0.0543,-0.41536c-0.19546,-2.29397 -1.11305,-4.75084 -2.6116,-6.99323l-0.21175,-0.31491l-0.19818,0.03529c-0.10859,0.02172 -0.39907,0.08144 -0.6434,0.13574c-2.09851,0.45879 -4.38434,1.57185 -6.27925,3.05682c-0.38278,0.30134 -0.50766,0.22804 -0.22261,-0.12759c0.58639,-0.73027 1.29223,-1.81346 1.74288,-2.67404c0.65969,-1.25694 1.19721,-2.7772 1.45511,-4.12101c0.03801,-0.19546 0.07058,-0.37192 0.07058,-0.3855c0,-0.04072 -0.61082,-0.43436 -1.15649,-0.74927c-0.5701,-0.32849 -1.55556,-0.81171 -2.18267,-1.06962c-1.23522,-0.51038 -2.62246,-0.86058 -3.93641,-0.99089c-0.23075,-0.02443 -0.43708,-0.04887 -0.45337,-0.0543c-0.04344,-0.01357 -0.04615,-0.08416 -0.00814,-0.10859c0.01629,-0.01086 0.26876,-0.0543 0.56467,-0.09773c0.9746,-0.14388 1.70759,-0.30948 2.65775,-0.59725c1.40353,-0.4235 2.89665,-1.11848 4.14273,-1.93291l0.37464,-0.24433l-0.01629,-0.11131c-0.03529,-0.22533 -0.20632,-0.96646 -0.3122,-1.34924c-0.32849,-1.20807 -0.9013,-2.58717 -1.52027,-3.66765c-0.29319,-0.51038 -0.86329,-1.37096 -1.24879,-1.88133c-0.16832,-0.22261 -0.3122,-0.42079 -0.31763,-0.43979c-0.02986,-0.07601 0.14117,-0.03529 0.26333,0.06244c0.53481,0.42893 1.48498,1.07505 2.09037,1.42254c0.48051,0.27419 1.46326,0.75199 1.94106,0.94474c0.58639,0.23618 1.37096,0.4968 1.87319,0.6244c0.42079,0.10859 1.20535,0.27691 1.28951,0.27691c0.10045,0 0.89859,-1.31395 1.36824,-2.25325c0.79271,-1.59085 1.27865,-3.1817 1.46597,-4.80513c0.02443,-0.20089 0.04344,-0.41536 0.04344,-0.4778c0,-0.05972 0.01629,-0.13302 0.03801,-0.16017c0.06244,-0.08687 0.11673,-0.01086 0.13845,0.19818c0.03258,0.3312 0.17917,1.15106 0.28776,1.64515c0.44794,1.98992 1.18092,3.77352 2.22882,5.41867c0.11945,0.18732 0.23347,0.36378 0.25519,0.39093c0.03529,0.05158 0.04344,0.05158 0.4235,-0.02172c0.91216,-0.17374 1.94377,-0.47508 2.8315,-0.83072c1.32209,-0.52938 2.64418,-1.2868 3.86039,-2.21796c0.29591,-0.22533 0.44251,-0.30134 0.44251,-0.22804c0,0.01357 -0.13302,0.20361 -0.29862,0.42079c-1.36281,1.81346 -2.31298,3.76809 -2.83421,5.82588c-0.09502,0.36921 -0.26062,1.1402 -0.26062,1.20535c0,0.019 0.65969,0.43979 1.04518,0.66512c0.90402,0.53209 2.26411,1.1402 3.24414,1.45511c0.90945,0.29048 1.83247,0.50766 2.78263,0.64883c0.25519,0.03801 0.50223,0.07873 0.5511,0.08687c0.08959,0.01357 0.14117,0.07601 0.09773,0.11945c-0.01357,0.01357 -0.23075,0.04344 -0.48594,0.06787c-1.70759,0.1656 -3.29029,0.63797 -5.02231,1.49583c-0.66512,0.32849 -1.88676,1.03704 -2.14466,1.24336l-0.07058,0.05701l0.05701,0.29862c0.46422,2.42971 1.44154,4.58524 3.01882,6.67017c0.17646,0.23347 0.32034,0.44794 0.32034,0.48051c0,0.08959 -0.09773,0.07058 -0.24161,-0.04887c-0.41807,-0.34477 -1.39539,-1.01532 -2.02521,-1.38453c-0.51852,-0.30677 -1.53384,-0.80357 -2.07679,-1.01532c-0.94202,-0.37192 -1.72659,-0.60811 -2.67947,-0.80628l-0.50223,-0.10316l-0.20089,0.3122c-0.53752,0.828 -1.13206,1.9682 -1.46869,2.81792c-0.53209,1.34924 -0.93388,2.87765 -1.11034,4.22146c-0.02715,0.20089 -0.05972,0.38278 -0.0733,0.40178c-0.03801,0.04887 -0.07058,0.04072 -0.09773,-0.02715zm0.36106,-10.96221c1.04518,-0.08687 1.95463,-0.58096 2.64418,-1.43611c0.37464,-0.46422 0.56467,-0.84158 0.7167,-1.41439c0.0733,-0.27419 0.08416,-0.36921 0.09502,-0.78728c0.01629,-0.52123 -0.01357,-0.76556 -0.14117,-1.20807c-0.27148,-0.94202 -1.05333,-1.85418 -1.98178,-2.31569c-0.54024,-0.26876 -0.98546,-0.36921 -1.64243,-0.36921c-0.66783,0.00271 -1.10491,0.10045 -1.65601,0.37735c-0.37464,0.18732 -0.68412,0.41807 -1.01804,0.75742c-0.5511,0.55924 -0.86872,1.13477 -1.03161,1.87047c-0.07058,0.30948 -0.08416,1.01261 -0.02986,1.35195c0.05972,0.36106 0.22804,0.87144 0.38278,1.15106c0.26605,0.48594 0.76013,1.04247 1.22164,1.36824c0.51581,0.36378 1.16192,0.60268 1.76188,0.65154c0.15203,0.01086 0.28776,0.02443 0.30405,0.02715c0.01629,0 0.1846,-0.01086 0.37464,-0.02443z"/>
 </g>
</svg>
