<?xml version="1.0" encoding="UTF-8" standalone="no"?>
<!DOCTYPE svg PUBLIC "-//W3C//DTD SVG 1.1//EN" "http://www.w3.org/Graphics/SVG/1.1/DTD/svg11.dtd">
<svg width="100%" height="100%" viewBox="0 0 1708 494" version="1.1" xmlns="http://www.w3.org/2000/svg" xmlns:xlink="http://www.w3.org/1999/xlink" xml:space="preserve" xmlns:serif="http://www.serif.com/" style="fill-rule:evenodd;clip-rule:evenodd;stroke-linejoin:round;stroke-miterlimit:2;">
    <g transform="matrix(1,0,0,1,-9.0325,-11.13)">
        <g transform="matrix(4.16667,0,0,4.16667,0,0)">
            <g transform="matrix(1,0,0,1,15.6248,62.4699)">
                <path d="M0,-30.597L-1.031,-25.945C-2.104,-21.104 -5.659,-17.046 -10.541,-15.09L-13.457,-13.922L-11.276,-11.66C-4.235,-4.359 7.738,0 20.752,0C33.766,0 45.738,-4.359 52.779,-11.661L54.96,-13.923L52.043,-15.091C47.163,-17.046 43.608,-21.103 42.536,-25.944L41.504,-30.595L38.747,-26.711C38.081,-25.772 37.505,-24.789 37.027,-23.778L4.476,-23.778C3.999,-24.789 3.423,-25.772 2.757,-26.711L0,-30.597ZM1.033,-25.487C1.871,-24.306 2.566,-23.026 3.077,-21.664L38.427,-21.664C38.938,-23.026 39.633,-24.305 40.471,-25.487C41.708,-19.909 45.8,-15.315 51.258,-13.128C44.878,-6.513 33.604,-2.114 20.752,-2.114C7.899,-2.114 -3.375,-6.513 -9.754,-13.128C-4.296,-15.315 -0.203,-19.909 1.033,-25.487" style="fill:rgb(242,235,213);fill-rule:nonzero;"/>
            </g>
        </g>
        <g transform="matrix(4.16667,0,0,4.16667,0,0)">
            <g transform="matrix(1,0,0,1,16.1414,61.4126)">
                <path d="M0,-26.985L-0.516,-24.659C-1.664,-19.477 -5.458,-15.138 -10.664,-13.051L-12.122,-12.467L-11.031,-11.337C-4.186,-4.238 7.502,0 20.235,0C32.968,0 44.656,-4.238 51.502,-11.337L52.592,-12.468L51.134,-13.052C45.929,-15.138 42.135,-19.476 40.987,-24.658L40.472,-26.983L39.092,-25.042C38.33,-23.966 37.693,-22.833 37.195,-21.664L3.275,-21.664C2.777,-22.833 2.141,-23.966 1.378,-25.042L0,-26.985ZM0.516,-24.43C1.354,-23.249 2.049,-21.969 2.56,-20.607L37.911,-20.607C38.421,-21.969 39.116,-23.248 39.955,-24.429C41.191,-18.852 45.284,-14.257 50.741,-12.071C44.362,-5.455 33.088,-1.057 20.235,-1.057C7.383,-1.057 -3.892,-5.455 -10.271,-12.07C-4.813,-14.257 -0.72,-18.852 0.516,-24.43" style="fill:rgb(95,61,28);fill-rule:nonzero;"/>
            </g>
        </g>
        <g transform="matrix(4.16667,0,0,4.16667,0,0)">
            <g transform="matrix(1,0,0,1,7.2586,46.6129)">
                <path d="M0,2.989C6.6,9.244 17.376,12.95 29.118,12.95C40.86,12.95 51.637,9.244 58.236,2.989C53.6,0.799 50.109,-3.067 48.552,-7.703C48.153,-6.996 47.813,-6.269 47.536,-5.528L47.342,-5.014L10.894,-5.014L10.701,-5.528C10.424,-6.269 10.083,-6.996 9.685,-7.703C8.127,-3.067 4.636,0.799 0,2.989M29.118,14.535C16.456,14.535 4.839,10.327 -1.958,3.28L-2.776,2.431L-1.683,1.993C3.604,-0.125 7.458,-4.534 8.625,-9.802L9.012,-11.546L10.045,-10.089C10.833,-8.981 11.482,-7.809 11.983,-6.6L46.253,-6.6C46.754,-7.809 47.404,-8.981 48.192,-10.089L49.226,-11.545L49.612,-9.801C50.779,-4.534 54.632,-0.125 59.918,1.993L61.013,2.431L60.194,3.279C53.397,10.327 41.781,14.535 29.118,14.535" style="fill:rgb(242,235,213);fill-rule:nonzero;"/>
            </g>
        </g>
        <g transform="matrix(4.16667,0,0,4.16667,0,0)">
            <g transform="matrix(1,0,0,1,17.1356,20.3413)">
                <path d="M0,3.95C0,-5.305 6.507,-13.035 15.195,-14.927L15.195,-16.571C3.765,-16.136 -6.075,-13.909 -11.838,-10.729C-5.802,-7.895 -1.656,-2.042 -1.656,4.723C-1.656,7.744 -2.483,10.582 -3.936,13.051C-1.455,15.017 0.466,17.588 1.566,20.521L9.382,20.521C3.762,17.142 0,10.986 0,3.95" style="fill:rgb(95,61,28);fill-rule:nonzero;"/>
            </g>
        </g>
        <g transform="matrix(4.16667,0,0,4.16667,0,0)">
            <g transform="matrix(1,0,0,1,33.3875,41.9192)">
                <path d="M0,-39.248L-1.098,-39.206C-12.484,-38.772 -22.508,-36.595 -28.6,-33.232L-30.415,-32.231L-28.539,-31.35C-22.633,-28.577 -18.965,-23.022 -18.965,-16.854C-18.965,-14.131 -19.703,-11.437 -21.099,-9.062L-21.565,-8.27L-20.844,-7.698C-18.482,-5.827 -16.695,-3.402 -15.676,-0.686L-15.418,0L-3.06,0L-6.325,-1.963C-11.879,-5.302 -15.195,-11.158 -15.195,-17.628C-15.195,-26.155 -9.154,-33.66 -0.832,-35.473L0,-35.654L0,-36.505L0,-38.149L0,-39.248ZM-1.057,-38.149L-1.057,-36.505C-9.745,-34.613 -16.252,-26.883 -16.252,-17.628C-16.252,-10.592 -12.49,-4.436 -6.87,-1.057L-14.686,-1.057C-15.786,-3.99 -17.707,-6.561 -20.188,-8.527C-18.735,-10.996 -17.908,-13.833 -17.908,-16.854C-17.908,-23.62 -22.054,-29.473 -28.09,-32.307C-22.327,-35.487 -12.487,-37.714 -1.057,-38.149" style="fill:rgb(242,235,213);fill-rule:nonzero;"/>
            </g>
        </g>
        <g transform="matrix(4.16667,0,0,4.16667,0,0)">
            <g transform="matrix(1,0,0,1,55.618,20.3413)">
                <path d="M0,3.95C0,-5.305 -6.507,-13.035 -15.195,-14.927L-15.195,-16.571C-3.765,-16.136 6.076,-13.909 11.837,-10.729C5.802,-7.895 1.656,-2.042 1.656,4.723C1.656,7.744 2.484,10.582 3.937,13.051C1.454,15.017 -0.466,17.588 -1.566,20.521L-9.381,20.521C-3.762,17.142 0,10.986 0,3.95" style="fill:rgb(95,61,28);fill-rule:nonzero;"/>
            </g>
        </g>
        <g transform="matrix(4.16667,0,0,4.16667,0,0)">
            <g transform="matrix(1,0,0,1,39.3665,41.9192)">
                <path d="M0,-39.248L0,-35.654L0.832,-35.473C9.154,-33.66 15.194,-26.155 15.194,-17.628C15.194,-11.158 11.879,-5.302 6.325,-1.963L3.062,0L15.417,0L15.675,-0.686C16.694,-3.402 18.481,-5.827 20.844,-7.698L21.566,-8.269L21.099,-9.062C19.702,-11.438 18.964,-14.132 18.964,-16.854C18.964,-23.022 22.633,-28.577 28.538,-31.35L30.414,-32.231L28.6,-33.232C22.509,-36.595 12.484,-38.772 1.097,-39.206L0,-39.248ZM1.057,-38.149C12.487,-37.714 22.327,-35.487 28.089,-32.307C22.054,-29.473 17.907,-23.62 17.907,-16.854C17.907,-13.833 18.736,-10.996 20.188,-8.527C17.706,-6.561 15.786,-3.99 14.686,-1.057L6.871,-1.057C12.49,-4.436 16.251,-10.592 16.251,-17.628C16.251,-26.883 9.744,-34.613 1.057,-36.505L1.057,-38.149" style="fill:rgb(242,235,213);fill-rule:nonzero;"/>
            </g>
        </g>
        <g transform="matrix(4.16667,0,0,4.16667,0,0)">
            <g transform="matrix(1,0,0,1,54.0521,56.533)">
                <path d="M0,-15.727C0.511,-17.089 1.206,-18.369 2.045,-19.55C3.28,-13.972 7.373,-9.378 12.831,-7.191C6.451,-0.576 -4.823,3.823 -17.675,3.823C-30.528,3.823 -41.802,-0.576 -48.181,-7.191C-42.724,-9.378 -38.63,-13.973 -37.395,-19.55C-36.556,-18.369 -35.861,-17.089 -35.35,-15.727L0,-15.727Z" style="fill:rgb(191,82,35);fill-rule:nonzero;"/>
            </g>
        </g>
        <g transform="matrix(4.16667,0,0,4.16667,0,0)">
            <g transform="matrix(0,-1,-1,0,36.3765,4.9747)">
                <path d="M-19.323,-19.324C-29.995,-19.324 -38.647,-10.672 -38.647,0C-38.647,10.672 -29.995,19.323 -19.323,19.323C-8.651,19.323 0,10.672 0,0C0,-10.672 -8.651,-19.324 -19.323,-19.324" style="fill:rgb(242,235,213);fill-rule:nonzero;"/>
            </g>
        </g>
        <g transform="matrix(4.16667,0,0,4.16667,0,0)">
            <g transform="matrix(0,-1,-1,0,36.4375,7.5464)">
                <path d="M-16.762,-16.762C-26.019,-16.762 -33.524,-9.258 -33.524,0C-33.524,9.258 -26.019,16.762 -16.762,16.762C-7.505,16.762 0,9.258 0,0C0,-9.258 -7.505,-16.762 -16.762,-16.762" style="fill:white;fill-rule:nonzero;"/>
            </g>
        </g>
        <g transform="matrix(4.16667,0,0,4.16667,0,0)">
            <g transform="matrix(1,0,0,1,36.3768,40.7142)">
                <path d="M0,-32.833C-9.052,-32.833 -16.417,-25.469 -16.417,-16.416C-16.417,-7.364 -9.052,0 0,0C9.052,0 16.417,-7.364 16.417,-16.416C16.417,-25.469 9.052,-32.833 0,-32.833M0,0.793C-9.49,0.793 -17.209,-6.927 -17.209,-16.416C-17.209,-25.906 -9.49,-33.626 0,-33.626C9.49,-33.626 17.209,-25.906 17.209,-16.416C17.209,-6.927 9.49,0.793 0,0.793" style="fill:rgb(95,61,28);fill-rule:nonzero;"/>
            </g>
        </g>
        <g transform="matrix(4.16667,0,0,4.16667,0,0)">
            <g transform="matrix(1,0,0,1,83.9076,62.4699)">
                <path d="M0,-30.597L-1.031,-25.945C-2.104,-21.104 -5.658,-17.046 -10.54,-15.09L-13.456,-13.922L-11.275,-11.66C-4.234,-4.359 7.738,0 20.752,0C33.766,0 45.739,-4.359 52.78,-11.661L54.96,-13.923L52.044,-15.091C47.163,-17.046 43.608,-21.103 42.536,-25.944L41.504,-30.595L38.748,-26.711C38.081,-25.772 37.506,-24.789 37.028,-23.778L4.476,-23.778C3.999,-24.789 3.424,-25.772 2.757,-26.711L0,-30.597ZM1.033,-25.487C1.872,-24.306 2.566,-23.026 3.077,-21.664L38.427,-21.664C38.938,-23.026 39.633,-24.305 40.471,-25.487C41.708,-19.909 45.801,-15.315 51.258,-13.128C44.879,-6.513 33.605,-2.114 20.752,-2.114C7.9,-2.114 -3.375,-6.513 -9.754,-13.128C-4.296,-15.315 -0.203,-19.909 1.033,-25.487" style="fill:rgb(242,235,213);fill-rule:nonzero;"/>
            </g>
        </g>
        <g transform="matrix(4.16667,0,0,4.16667,0,0)">
            <g transform="matrix(1,0,0,1,84.4242,61.4126)">
                <path d="M0,-26.985L-0.516,-24.659C-1.664,-19.477 -5.458,-15.138 -10.664,-13.051L-12.122,-12.467L-11.031,-11.337C-4.186,-4.238 7.503,0 20.235,0C32.968,0 44.657,-4.238 51.502,-11.337L52.592,-12.468L51.134,-13.052C45.929,-15.138 42.135,-19.476 40.987,-24.658L40.472,-26.983L39.093,-25.042C38.33,-23.966 37.693,-22.833 37.195,-21.664L3.275,-21.664C2.778,-22.833 2.142,-23.966 1.379,-25.042L0,-26.985ZM0.517,-24.43C1.355,-23.249 2.049,-21.969 2.561,-20.607L37.911,-20.607C38.422,-21.969 39.117,-23.248 39.955,-24.429C41.191,-18.852 45.284,-14.257 50.742,-12.071C44.362,-5.455 33.088,-1.057 20.235,-1.057C7.383,-1.057 -3.891,-5.455 -10.271,-12.07C-4.813,-14.257 -0.72,-18.852 0.517,-24.43" style="fill:rgb(95,61,28);fill-rule:nonzero;"/>
            </g>
        </g>
        <g transform="matrix(4.16667,0,0,4.16667,0,0)">
            <g transform="matrix(1,0,0,1,75.5414,46.6129)">
                <path d="M0,2.989C6.6,9.244 17.376,12.95 29.119,12.95C40.861,12.95 51.637,9.244 58.236,2.989C53.6,0.799 50.109,-3.067 48.552,-7.703C48.153,-6.996 47.813,-6.269 47.536,-5.528L47.343,-5.014L10.895,-5.014L10.702,-5.528C10.424,-6.269 10.084,-6.996 9.686,-7.703C8.128,-3.067 4.636,0.799 0,2.989M29.119,14.535C16.457,14.535 4.839,10.327 -1.958,3.28L-2.776,2.431L-1.683,1.993C3.605,-0.125 7.458,-4.534 8.625,-9.802L9.012,-11.546L10.046,-10.089C10.833,-8.981 11.483,-7.809 11.983,-6.6L46.254,-6.6C46.754,-7.809 47.405,-8.981 48.192,-10.089L49.226,-11.545L49.612,-9.801C50.779,-4.534 54.632,-0.125 59.918,1.993L61.013,2.431L60.195,3.279C53.398,10.327 41.781,14.535 29.119,14.535" style="fill:rgb(242,235,213);fill-rule:nonzero;"/>
            </g>
        </g>
        <g transform="matrix(4.16667,0,0,4.16667,0,0)">
            <g transform="matrix(1,0,0,1,85.4188,20.3413)">
                <path d="M0,3.95C0,-5.305 6.507,-13.035 15.194,-14.927L15.194,-16.571C3.765,-16.136 -6.075,-13.909 -11.838,-10.729C-5.802,-7.895 -1.656,-2.042 -1.656,4.723C-1.656,7.744 -2.484,10.582 -3.936,13.051C-1.455,15.017 0.465,17.588 1.566,20.521L9.382,20.521C3.761,17.142 0,10.986 0,3.95" style="fill:rgb(95,61,28);fill-rule:nonzero;"/>
            </g>
        </g>
        <g transform="matrix(4.16667,0,0,4.16667,0,0)">
            <g transform="matrix(1,0,0,1,101.67,41.9192)">
                <path d="M0,-39.248L-1.097,-39.206C-12.483,-38.772 -22.508,-36.595 -28.6,-33.232L-30.415,-32.231L-28.539,-31.35C-22.633,-28.577 -18.964,-23.022 -18.964,-16.854C-18.964,-14.131 -19.702,-11.437 -21.099,-9.062L-21.565,-8.27L-20.844,-7.698C-18.481,-5.827 -16.694,-3.402 -15.675,-0.686L-15.418,0L-3.06,0L-6.325,-1.963C-11.879,-5.302 -15.194,-11.158 -15.194,-17.628C-15.194,-26.155 -9.154,-33.66 -0.832,-35.473L0,-35.654L0,-36.505L0,-38.149L0,-39.248ZM-1.057,-38.149L-1.057,-36.505C-9.744,-34.613 -16.251,-26.883 -16.251,-17.628C-16.251,-10.592 -12.49,-4.436 -6.87,-1.057L-14.686,-1.057C-15.786,-3.99 -17.706,-6.561 -20.187,-8.527C-18.735,-10.996 -17.907,-13.833 -17.907,-16.854C-17.907,-23.62 -22.054,-29.473 -28.089,-32.307C-22.326,-35.487 -12.487,-37.714 -1.057,-38.149" style="fill:rgb(242,235,213);fill-rule:nonzero;"/>
            </g>
        </g>
        <g transform="matrix(4.16667,0,0,4.16667,0,0)">
            <g transform="matrix(1,0,0,1,123.901,20.3413)">
                <path d="M0,3.95C0,-5.305 -6.507,-13.035 -15.194,-14.927L-15.194,-16.571C-3.764,-16.136 6.076,-13.909 11.838,-10.729C5.802,-7.895 1.656,-2.042 1.656,4.723C1.656,7.744 2.485,10.582 3.937,13.051C1.455,15.017 -0.465,17.588 -1.566,20.521L-9.381,20.521C-3.761,17.142 0,10.986 0,3.95" style="fill:rgb(95,61,28);fill-rule:nonzero;"/>
            </g>
        </g>
        <g transform="matrix(4.16667,0,0,4.16667,0,0)">
            <g transform="matrix(1,0,0,1,107.649,41.9192)">
                <path d="M0,-39.248L0,-35.654L0.832,-35.473C9.154,-33.66 15.195,-26.155 15.195,-17.628C15.195,-11.158 11.879,-5.302 6.326,-1.963L3.062,0L15.417,0L15.675,-0.686C16.694,-3.402 18.482,-5.827 20.845,-7.698L21.566,-8.269L21.099,-9.062C19.703,-11.438 18.964,-14.132 18.964,-16.854C18.964,-23.022 22.633,-28.577 28.539,-31.35L30.414,-32.231L28.601,-33.232C22.509,-36.595 12.484,-38.772 1.097,-39.206L0,-39.248ZM1.057,-38.149C12.487,-37.714 22.328,-35.487 28.089,-32.307C22.054,-29.473 17.907,-23.62 17.907,-16.854C17.907,-13.833 18.736,-10.996 20.188,-8.527C17.706,-6.561 15.786,-3.99 14.686,-1.057L6.871,-1.057C12.49,-4.436 16.251,-10.592 16.251,-17.628C16.251,-26.883 9.745,-34.613 1.057,-36.505L1.057,-38.149" style="fill:rgb(242,235,213);fill-rule:nonzero;"/>
            </g>
        </g>
        <g transform="matrix(4.16667,0,0,4.16667,0,0)">
            <g transform="matrix(1,0,0,1,122.335,56.533)">
                <path d="M0,-15.727C0.511,-17.089 1.206,-18.369 2.045,-19.55C3.281,-13.972 7.374,-9.378 12.831,-7.191C6.452,-0.576 -4.822,3.823 -17.675,3.823C-30.527,3.823 -41.801,-0.576 -48.181,-7.191C-42.723,-9.378 -38.63,-13.973 -37.394,-19.55C-36.555,-18.369 -35.861,-17.089 -35.35,-15.727L0,-15.727Z" style="fill:rgb(191,82,35);fill-rule:nonzero;"/>
            </g>
        </g>
        <g transform="matrix(4.16667,0,0,4.16667,0,0)">
            <g transform="matrix(0,-1,-1,0,104.66,4.9747)">
                <path d="M-19.323,-19.324C-29.995,-19.324 -38.647,-10.672 -38.647,0C-38.647,10.672 -29.995,19.323 -19.323,19.323C-8.651,19.323 0,10.672 0,0C0,-10.672 -8.651,-19.324 -19.323,-19.324" style="fill:rgb(242,235,213);fill-rule:nonzero;"/>
            </g>
        </g>
        <g transform="matrix(4.16667,0,0,4.16667,0,0)">
            <g transform="matrix(0,-1,-1,0,104.721,7.5464)">
                <path d="M-16.762,-16.762C-26.019,-16.762 -33.524,-9.258 -33.524,0C-33.524,9.258 -26.019,16.762 -16.762,16.762C-7.505,16.762 0,9.258 0,0C0,-9.258 -7.505,-16.762 -16.762,-16.762" style="fill:white;fill-rule:nonzero;"/>
            </g>
        </g>
        <g transform="matrix(4.16667,0,0,4.16667,0,0)">
            <g transform="matrix(1,0,0,1,104.659,40.7142)">
                <path d="M0,-32.833C-9.052,-32.833 -16.417,-25.469 -16.417,-16.416C-16.417,-7.364 -9.052,0 0,0C9.052,0 16.417,-7.364 16.417,-16.416C16.417,-25.469 9.052,-32.833 0,-32.833M0,0.793C-9.489,0.793 -17.209,-6.927 -17.209,-16.416C-17.209,-25.906 -9.489,-33.626 0,-33.626C9.49,-33.626 17.21,-25.906 17.21,-16.416C17.21,-6.927 9.49,0.793 0,0.793" style="fill:rgb(95,61,28);fill-rule:nonzero;"/>
            </g>
        </g>
        <g transform="matrix(4.16667,0,0,4.16667,0,0)">
            <g transform="matrix(1,0,0,1,152.191,62.4699)">
                <path d="M0,-30.597L-1.031,-25.945C-2.104,-21.104 -5.659,-17.046 -10.54,-15.09L-13.457,-13.922L-11.276,-11.66C-4.235,-4.359 7.738,0 20.752,0C33.766,0 45.739,-4.359 52.78,-11.661L54.96,-13.923L52.043,-15.091C47.163,-17.046 43.608,-21.103 42.536,-25.944L41.504,-30.595L38.747,-26.711C38.081,-25.772 37.505,-24.789 37.027,-23.778L4.476,-23.778C3.999,-24.789 3.423,-25.772 2.757,-26.711L0,-30.597ZM1.033,-25.487C1.871,-24.306 2.566,-23.026 3.077,-21.664L38.427,-21.664C38.938,-23.026 39.633,-24.305 40.471,-25.487C41.708,-19.909 45.801,-15.315 51.258,-13.128C44.879,-6.513 33.604,-2.114 20.752,-2.114C7.899,-2.114 -3.375,-6.513 -9.754,-13.128C-4.296,-15.315 -0.203,-19.909 1.033,-25.487" style="fill:rgb(242,235,213);fill-rule:nonzero;"/>
            </g>
        </g>
        <g transform="matrix(4.16667,0,0,4.16667,0,0)">
            <g transform="matrix(1,0,0,1,152.707,61.4126)">
                <path d="M0,-26.985L-0.516,-24.659C-1.664,-19.477 -5.458,-15.138 -10.664,-13.051L-12.122,-12.467L-11.031,-11.337C-4.186,-4.238 7.502,0 20.235,0C32.968,0 44.656,-4.238 51.502,-11.337L52.592,-12.468L51.134,-13.052C45.929,-15.138 42.135,-19.476 40.987,-24.658L40.472,-26.983L39.093,-25.042C38.33,-23.966 37.693,-22.833 37.195,-21.664L3.275,-21.664C2.777,-22.833 2.141,-23.966 1.378,-25.042L0,-26.985ZM0.517,-24.43C1.354,-23.249 2.049,-21.969 2.56,-20.607L37.911,-20.607C38.422,-21.969 39.116,-23.248 39.955,-24.429C41.191,-18.852 45.284,-14.257 50.741,-12.071C44.362,-5.455 33.088,-1.057 20.235,-1.057C7.383,-1.057 -3.891,-5.455 -10.271,-12.07C-4.813,-14.257 -0.72,-18.852 0.517,-24.43" style="fill:rgb(95,61,28);fill-rule:nonzero;"/>
            </g>
        </g>
        <g transform="matrix(4.16667,0,0,4.16667,0,0)">
            <g transform="matrix(1,0,0,1,143.825,46.6129)">
                <path d="M0,2.989C6.6,9.244 17.376,12.95 29.119,12.95C40.861,12.95 51.637,9.244 58.236,2.989C53.6,0.799 50.109,-3.067 48.552,-7.703C48.153,-6.996 47.813,-6.269 47.536,-5.528L47.343,-5.014L10.894,-5.014L10.701,-5.528C10.424,-6.269 10.083,-6.996 9.685,-7.703C8.128,-3.067 4.636,0.799 0,2.989M29.119,14.535C16.456,14.535 4.839,10.327 -1.958,3.28L-2.776,2.431L-1.683,1.993C3.605,-0.125 7.458,-4.534 8.625,-9.802L9.012,-11.546L10.046,-10.089C10.833,-8.981 11.483,-7.809 11.983,-6.6L46.253,-6.6C46.754,-7.809 47.405,-8.981 48.192,-10.089L49.226,-11.545L49.612,-9.801C50.779,-4.534 54.632,-0.125 59.918,1.993L61.013,2.431L60.194,3.279C53.398,10.327 41.781,14.535 29.119,14.535" style="fill:rgb(242,235,213);fill-rule:nonzero;"/>
            </g>
        </g>
        <g transform="matrix(4.16667,0,0,4.16667,0,0)">
            <g transform="matrix(1,0,0,1,153.701,20.3413)">
                <path d="M0,3.95C0,-5.305 6.507,-13.035 15.195,-14.927L15.195,-16.571C3.765,-16.136 -6.075,-13.909 -11.837,-10.729C-5.802,-7.895 -1.656,-2.042 -1.656,4.723C-1.656,7.744 -2.483,10.582 -3.936,13.051C-1.454,15.017 0.466,17.588 1.566,20.521L9.382,20.521C3.762,17.142 0,10.986 0,3.95" style="fill:rgb(95,61,28);fill-rule:nonzero;"/>
            </g>
        </g>
        <g transform="matrix(4.16667,0,0,4.16667,0,0)">
            <g transform="matrix(1,0,0,1,169.953,41.9192)">
                <path d="M0,-39.248L-1.097,-39.206C-12.484,-38.772 -22.508,-36.595 -28.6,-33.232L-30.415,-32.231L-28.539,-31.35C-22.633,-28.577 -18.964,-23.022 -18.964,-16.854C-18.964,-14.131 -19.703,-11.437 -21.099,-9.062L-21.565,-8.27L-20.844,-7.698C-18.481,-5.827 -16.694,-3.402 -15.675,-0.686L-15.418,0L-3.06,0L-6.325,-1.963C-11.879,-5.302 -15.195,-11.158 -15.195,-17.628C-15.195,-26.155 -9.154,-33.66 -0.832,-35.473L0,-35.654L0,-36.505L0,-38.149L0,-39.248ZM-1.057,-38.149L-1.057,-36.505C-9.745,-34.613 -16.252,-26.883 -16.252,-17.628C-16.252,-10.592 -12.49,-4.436 -6.87,-1.057L-14.686,-1.057C-15.786,-3.99 -17.706,-6.561 -20.187,-8.527C-18.735,-10.996 -17.908,-13.833 -17.908,-16.854C-17.908,-23.62 -22.054,-29.473 -28.089,-32.307C-22.327,-35.487 -12.487,-37.714 -1.057,-38.149" style="fill:rgb(242,235,213);fill-rule:nonzero;"/>
            </g>
        </g>
        <g transform="matrix(4.16667,0,0,4.16667,0,0)">
            <g transform="matrix(1,0,0,1,192.184,20.3413)">
                <path d="M0,3.95C0,-5.305 -6.507,-13.035 -15.194,-14.927L-15.194,-16.571C-3.765,-16.136 6.076,-13.909 11.838,-10.729C5.802,-7.895 1.656,-2.042 1.656,4.723C1.656,7.744 2.484,10.582 3.937,13.051C1.455,15.017 -0.465,17.588 -1.566,20.521L-9.381,20.521C-3.761,17.142 0,10.986 0,3.95" style="fill:rgb(95,61,28);fill-rule:nonzero;"/>
            </g>
        </g>
        <g transform="matrix(4.16667,0,0,4.16667,0,0)">
            <g transform="matrix(1,0,0,1,175.932,41.9192)">
                <path d="M0,-39.248L0,-35.654L0.832,-35.473C9.154,-33.66 15.194,-26.155 15.194,-17.628C15.194,-11.158 11.879,-5.302 6.326,-1.963L3.062,0L15.417,0L15.675,-0.686C16.694,-3.402 18.481,-5.827 20.844,-7.698L21.566,-8.269L21.099,-9.062C19.702,-11.438 18.964,-14.132 18.964,-16.854C18.964,-23.022 22.633,-28.577 28.538,-31.35L30.414,-32.231L28.6,-33.232C22.509,-36.595 12.484,-38.772 1.097,-39.206L0,-39.248ZM1.057,-38.149C12.487,-37.714 22.327,-35.487 28.089,-32.307C22.054,-29.473 17.907,-23.62 17.907,-16.854C17.907,-13.833 18.736,-10.996 20.188,-8.527C17.706,-6.561 15.786,-3.99 14.686,-1.057L6.871,-1.057C12.49,-4.436 16.251,-10.592 16.251,-17.628C16.251,-26.883 9.744,-34.613 1.057,-36.505L1.057,-38.149" style="fill:rgb(242,235,213);fill-rule:nonzero;"/>
            </g>
        </g>
        <g transform="matrix(4.16667,0,0,4.16667,0,0)">
            <g transform="matrix(1,0,0,1,190.618,56.533)">
                <path d="M0,-15.727C0.511,-17.089 1.206,-18.369 2.045,-19.55C3.28,-13.972 7.374,-9.378 12.831,-7.191C6.452,-0.576 -4.823,3.823 -17.675,3.823C-30.528,3.823 -41.802,-0.576 -48.181,-7.191C-42.724,-9.378 -38.63,-13.973 -37.394,-19.55C-36.556,-18.369 -35.861,-17.089 -35.35,-15.727L0,-15.727Z" style="fill:rgb(191,82,35);fill-rule:nonzero;"/>
            </g>
        </g>
        <g transform="matrix(4.16667,0,0,4.16667,0,0)">
            <g transform="matrix(0,-1,-1,0,172.942,4.9747)">
                <path d="M-19.323,-19.324C-29.995,-19.324 -38.647,-10.672 -38.647,0C-38.647,10.672 -29.995,19.323 -19.323,19.323C-8.651,19.323 0,10.672 0,0C0,-10.672 -8.651,-19.324 -19.323,-19.324" style="fill:rgb(242,235,213);fill-rule:nonzero;"/>
            </g>
        </g>
        <g transform="matrix(4.16667,0,0,4.16667,0,0)">
            <g transform="matrix(0,-1,-1,0,173.004,7.5464)">
                <path d="M-16.762,-16.762C-26.019,-16.762 -33.524,-9.257 -33.524,0C-33.524,9.258 -26.019,16.762 -16.762,16.762C-7.505,16.762 0,9.258 0,0C0,-9.257 -7.505,-16.762 -16.762,-16.762" style="fill:white;fill-rule:nonzero;"/>
            </g>
        </g>
        <g transform="matrix(4.16667,0,0,4.16667,0,0)">
            <g transform="matrix(1,0,0,1,172.943,40.7142)">
                <path d="M0,-32.833C-9.052,-32.833 -16.417,-25.469 -16.417,-16.416C-16.417,-7.364 -9.052,0 0,0C9.052,0 16.417,-7.364 16.417,-16.416C16.417,-25.469 9.052,-32.833 0,-32.833M0,0.793C-9.489,0.793 -17.209,-6.927 -17.209,-16.416C-17.209,-25.906 -9.489,-33.626 0,-33.626C9.49,-33.626 17.21,-25.906 17.21,-16.416C17.21,-6.927 9.49,0.793 0,0.793" style="fill:rgb(95,61,28);fill-rule:nonzero;"/>
            </g>
        </g>
        <g transform="matrix(4.16667,0,0,4.16667,0,0)">
            <g transform="matrix(1,0,0,1,220.474,62.4699)">
                <path d="M0,-30.597L-1.031,-25.945C-2.104,-21.104 -5.659,-17.046 -10.541,-15.09L-13.457,-13.922L-11.276,-11.66C-4.235,-4.359 7.738,0 20.752,0C33.766,0 45.738,-4.359 52.779,-11.661L54.96,-13.923L52.043,-15.091C47.162,-17.046 43.608,-21.103 42.535,-25.944L41.504,-30.595L38.747,-26.711C38.081,-25.772 37.505,-24.789 37.027,-23.778L4.476,-23.778C3.998,-24.789 3.423,-25.772 2.757,-26.711L0,-30.597ZM1.033,-25.487C1.871,-24.306 2.565,-23.026 3.077,-21.664L38.427,-21.664C38.938,-23.026 39.633,-24.305 40.471,-25.487C41.708,-19.909 45.801,-15.315 51.258,-13.128C44.879,-6.513 33.604,-2.114 20.752,-2.114C7.899,-2.114 -3.375,-6.513 -9.754,-13.128C-4.296,-15.315 -0.203,-19.909 1.033,-25.487" style="fill:rgb(242,235,213);fill-rule:nonzero;"/>
            </g>
        </g>
        <g transform="matrix(4.16667,0,0,4.16667,0,0)">
            <g transform="matrix(1,0,0,1,220.991,61.4126)">
                <path d="M0,-26.985L-0.516,-24.659C-1.664,-19.477 -5.458,-15.138 -10.664,-13.051L-12.122,-12.467L-11.031,-11.337C-4.186,-4.238 7.503,0 20.235,0C32.968,0 44.656,-4.238 51.502,-11.337L52.592,-12.468L51.134,-13.052C45.929,-15.138 42.135,-19.476 40.986,-24.658L40.472,-26.983L39.093,-25.042C38.329,-23.966 37.692,-22.833 37.195,-21.664L3.275,-21.664C2.777,-22.833 2.141,-23.966 1.379,-25.042L0,-26.985ZM0.517,-24.43C1.354,-23.249 2.049,-21.969 2.561,-20.607L37.91,-20.607C38.422,-21.969 39.116,-23.248 39.954,-24.429C41.191,-18.852 45.284,-14.257 50.741,-12.071C44.362,-5.455 33.088,-1.057 20.235,-1.057C7.383,-1.057 -3.892,-5.455 -10.271,-12.07C-4.813,-14.257 -0.72,-18.852 0.517,-24.43" style="fill:rgb(95,61,28);fill-rule:nonzero;"/>
            </g>
        </g>
        <g transform="matrix(4.16667,0,0,4.16667,0,0)">
            <g transform="matrix(1,0,0,1,212.107,46.6129)">
                <path d="M0,2.989C6.6,9.244 17.376,12.95 29.119,12.95C40.861,12.95 51.637,9.244 58.237,2.989C53.6,0.799 50.109,-3.067 48.552,-7.703C48.153,-6.996 47.814,-6.269 47.536,-5.528L47.343,-5.014L10.894,-5.014L10.702,-5.528C10.424,-6.269 10.083,-6.996 9.685,-7.703C8.128,-3.067 4.637,0.799 0,2.989M29.119,14.535C16.457,14.535 4.839,10.327 -1.958,3.28L-2.776,2.431L-1.682,1.993C3.605,-0.125 7.458,-4.534 8.625,-9.802L9.012,-11.546L10.046,-10.089C10.833,-8.981 11.483,-7.809 11.983,-6.6L46.254,-6.6C46.754,-7.809 47.405,-8.981 48.193,-10.089L49.226,-11.545L49.613,-9.801C50.779,-4.534 54.632,-0.125 59.918,1.993L61.013,2.431L60.195,3.279C53.398,10.327 41.781,14.535 29.119,14.535" style="fill:rgb(242,235,213);fill-rule:nonzero;"/>
            </g>
        </g>
        <g transform="matrix(4.16667,0,0,4.16667,0,0)">
            <g transform="matrix(1,0,0,1,221.985,20.3413)">
                <path d="M0,3.95C0,-5.305 6.507,-13.035 15.194,-14.927L15.194,-16.571C3.765,-16.136 -6.075,-13.909 -11.838,-10.729C-5.802,-7.895 -1.656,-2.042 -1.656,4.723C-1.656,7.744 -2.483,10.582 -3.936,13.051C-1.455,15.017 0.466,17.588 1.566,20.521L9.382,20.521C3.762,17.142 0,10.986 0,3.95" style="fill:rgb(95,61,28);fill-rule:nonzero;"/>
            </g>
        </g>
        <g transform="matrix(4.16667,0,0,4.16667,0,0)">
            <g transform="matrix(1,0,0,1,238.237,41.9192)">
                <path d="M0,-39.248L-1.098,-39.206C-12.484,-38.772 -22.508,-36.595 -28.601,-33.232L-30.415,-32.231L-28.539,-31.35C-22.633,-28.577 -18.965,-23.022 -18.965,-16.854C-18.965,-14.131 -19.703,-11.437 -21.099,-9.062L-21.565,-8.27L-20.844,-7.698C-18.482,-5.827 -16.694,-3.402 -15.676,-0.686L-15.418,0L-3.061,0L-6.325,-1.963C-11.879,-5.302 -15.195,-11.158 -15.195,-17.628C-15.195,-26.155 -9.154,-33.66 -0.832,-35.473L0,-35.654L0,-36.505L0,-38.149L0,-39.248ZM-1.058,-38.149L-1.058,-36.505C-9.745,-34.613 -16.252,-26.883 -16.252,-17.628C-16.252,-10.592 -12.49,-4.436 -6.87,-1.057L-14.686,-1.057C-15.786,-3.99 -17.707,-6.561 -20.188,-8.527C-18.735,-10.996 -17.908,-13.833 -17.908,-16.854C-17.908,-23.62 -22.054,-29.473 -28.09,-32.307C-22.327,-35.487 -12.487,-37.714 -1.058,-38.149" style="fill:rgb(242,235,213);fill-rule:nonzero;"/>
            </g>
        </g>
        <g transform="matrix(4.16667,0,0,4.16667,0,0)">
            <g transform="matrix(1,0,0,1,260.467,20.3413)">
                <path d="M0,3.95C0,-5.305 -6.508,-13.035 -15.194,-14.927L-15.194,-16.571C-3.765,-16.136 6.075,-13.909 11.838,-10.729C5.802,-7.895 1.655,-2.042 1.655,4.723C1.655,7.744 2.484,10.582 3.937,13.051C1.454,15.017 -0.466,17.588 -1.566,20.521L-9.381,20.521C-3.762,17.142 0,10.986 0,3.95" style="fill:rgb(95,61,28);fill-rule:nonzero;"/>
            </g>
        </g>
        <g transform="matrix(4.16667,0,0,4.16667,0,0)">
            <g transform="matrix(1,0,0,1,244.215,41.9192)">
                <path d="M0,-39.248L0,-35.654L0.832,-35.473C9.154,-33.66 15.194,-26.155 15.194,-17.628C15.194,-11.158 11.879,-5.302 6.326,-1.963L3.062,0L15.418,0L15.675,-0.686C16.694,-3.402 18.482,-5.827 20.845,-7.698L21.566,-8.269L21.1,-9.062C19.702,-11.438 18.965,-14.132 18.965,-16.854C18.965,-23.022 22.633,-28.577 28.538,-31.35L30.414,-32.231L28.601,-33.232C22.509,-36.595 12.484,-38.772 1.098,-39.206L0,-39.248ZM1.058,-38.149C12.487,-37.714 22.327,-35.487 28.09,-32.307C22.054,-29.473 17.907,-23.62 17.907,-16.854C17.907,-13.833 18.736,-10.996 20.188,-8.527C17.706,-6.561 15.786,-3.99 14.686,-1.057L6.871,-1.057C12.49,-4.436 16.252,-10.592 16.252,-17.628C16.252,-26.883 9.744,-34.613 1.058,-36.505L1.058,-38.149" style="fill:rgb(242,235,213);fill-rule:nonzero;"/>
            </g>
        </g>
        <g transform="matrix(4.16667,0,0,4.16667,0,0)">
            <g transform="matrix(1,0,0,1,258.901,56.533)">
                <path d="M0,-15.727C0.512,-17.089 1.206,-18.369 2.045,-19.55C3.281,-13.972 7.374,-9.378 12.831,-7.191C6.452,-0.576 -4.822,3.823 -17.675,3.823C-30.527,3.823 -41.801,-0.576 -48.181,-7.191C-42.723,-9.378 -38.63,-13.973 -37.394,-19.55C-36.556,-18.369 -35.86,-17.089 -35.35,-15.727L0,-15.727Z" style="fill:rgb(191,82,35);fill-rule:nonzero;"/>
            </g>
        </g>
        <g transform="matrix(4.16667,0,0,4.16667,0,0)">
            <g transform="matrix(0,-1,-1,0,241.225,4.9747)">
                <path d="M-19.323,-19.324C-29.995,-19.324 -38.647,-10.673 -38.647,-0.001C-38.647,10.671 -29.995,19.323 -19.323,19.323C-8.651,19.323 0,10.671 0,-0.001C0,-10.673 -8.651,-19.324 -19.323,-19.324" style="fill:rgb(242,235,213);fill-rule:nonzero;"/>
            </g>
        </g>
        <g transform="matrix(4.16667,0,0,4.16667,0,0)">
            <g transform="matrix(0,-1,-1,0,241.287,7.5464)">
                <path d="M-16.762,-16.762C-26.019,-16.762 -33.524,-9.257 -33.524,0.001C-33.524,9.258 -26.019,16.762 -16.762,16.762C-7.505,16.762 0,9.258 0,0.001C0,-9.257 -7.505,-16.762 -16.762,-16.762" style="fill:white;fill-rule:nonzero;"/>
            </g>
        </g>
        <g transform="matrix(4.16667,0,0,4.16667,0,0)">
            <g transform="matrix(1,0,0,1,241.226,40.7142)">
                <path d="M0,-32.833C-9.053,-32.833 -16.417,-25.469 -16.417,-16.416C-16.417,-7.364 -9.053,0 0,0C9.052,0 16.417,-7.364 16.417,-16.416C16.417,-25.469 9.052,-32.833 0,-32.833M0,0.793C-9.489,0.793 -17.21,-6.927 -17.21,-16.416C-17.21,-25.906 -9.489,-33.626 0,-33.626C9.489,-33.626 17.21,-25.906 17.21,-16.416C17.21,-6.927 9.489,0.793 0,0.793" style="fill:rgb(95,61,28);fill-rule:nonzero;"/>
            </g>
        </g>
        <g transform="matrix(4.16667,0,0,4.16667,0,0)">
            <g transform="matrix(1,0,0,1,288.757,62.4699)">
                <path d="M0,-30.597L-1.031,-25.945C-2.104,-21.104 -5.659,-17.046 -10.541,-15.09L-13.457,-13.922L-11.276,-11.66C-4.235,-4.359 7.738,0 20.752,0C33.766,0 45.738,-4.359 52.779,-11.661L54.96,-13.923L52.043,-15.091C47.162,-17.046 43.607,-21.103 42.535,-25.944L41.504,-30.595L38.747,-26.711C38.081,-25.772 37.505,-24.789 37.027,-23.778L4.476,-23.778C3.998,-24.789 3.423,-25.772 2.757,-26.711L0,-30.597ZM1.032,-25.487C1.871,-24.306 2.565,-23.026 3.076,-21.664L38.427,-21.664C38.938,-23.026 39.633,-24.305 40.471,-25.487C41.707,-19.909 45.8,-15.315 51.258,-13.128C44.879,-6.513 33.604,-2.114 20.752,-2.114C7.899,-2.114 -3.375,-6.513 -9.754,-13.128C-4.297,-15.315 -0.203,-19.909 1.032,-25.487" style="fill:rgb(242,235,213);fill-rule:nonzero;"/>
            </g>
        </g>
        <g transform="matrix(4.16667,0,0,4.16667,0,0)">
            <g transform="matrix(1,0,0,1,289.274,61.4126)">
                <path d="M0,-26.985L-0.516,-24.659C-1.664,-19.477 -5.458,-15.138 -10.664,-13.051L-12.122,-12.467L-11.031,-11.337C-4.187,-4.238 7.502,0 20.235,0C32.968,0 44.656,-4.238 51.502,-11.337L52.592,-12.468L51.134,-13.052C45.929,-15.138 42.135,-19.476 40.986,-24.658L40.472,-26.983L39.092,-25.042C38.329,-23.966 37.692,-22.833 37.195,-21.664L3.275,-21.664C2.777,-22.833 2.141,-23.966 1.378,-25.042L0,-26.985ZM0.516,-24.43C1.354,-23.249 2.049,-21.969 2.56,-20.607L37.91,-20.607C38.421,-21.969 39.116,-23.248 39.954,-24.429C41.19,-18.852 45.283,-14.257 50.741,-12.071C44.362,-5.455 33.088,-1.057 20.235,-1.057C7.383,-1.057 -3.892,-5.455 -10.271,-12.07C-4.813,-14.257 -0.72,-18.852 0.516,-24.43" style="fill:rgb(95,61,28);fill-rule:nonzero;"/>
            </g>
        </g>
        <g transform="matrix(4.16667,0,0,4.16667,0,0)">
            <g transform="matrix(1,0,0,1,280.391,46.6129)">
                <path d="M0,2.989C6.6,9.244 17.376,12.95 29.118,12.95C40.86,12.95 51.637,9.244 58.236,2.989C53.6,0.799 50.108,-3.067 48.552,-7.703C48.152,-6.996 47.813,-6.269 47.535,-5.528L47.342,-5.014L10.894,-5.014L10.701,-5.528C10.424,-6.269 10.083,-6.996 9.685,-7.703C8.127,-3.067 4.636,0.799 0,2.989M29.118,14.535C16.456,14.535 4.839,10.327 -1.959,3.28L-2.776,2.431L-1.683,1.993C3.604,-0.125 7.458,-4.534 8.625,-9.802L9.012,-11.546L10.045,-10.089C10.832,-8.981 11.482,-7.809 11.982,-6.6L46.253,-6.6C46.754,-7.809 47.404,-8.981 48.191,-10.089L49.226,-11.545L49.611,-9.801C50.778,-4.534 54.632,-0.125 59.918,1.993L61.013,2.431L60.194,3.279C53.397,10.327 41.78,14.535 29.118,14.535" style="fill:rgb(242,235,213);fill-rule:nonzero;"/>
            </g>
        </g>
        <g transform="matrix(4.16667,0,0,4.16667,0,0)">
            <g transform="matrix(1,0,0,1,290.268,20.3413)">
                <path d="M0,3.95C0,-5.305 6.507,-13.035 15.194,-14.927L15.194,-16.571C3.765,-16.136 -6.075,-13.909 -11.838,-10.729C-5.803,-7.895 -1.656,-2.042 -1.656,4.723C-1.656,7.744 -2.483,10.582 -3.937,13.051C-1.454,15.017 0.466,17.588 1.565,20.521L9.382,20.521C3.762,17.142 0,10.986 0,3.95" style="fill:rgb(95,61,28);fill-rule:nonzero;"/>
            </g>
        </g>
        <g transform="matrix(4.16667,0,0,4.16667,0,0)">
            <g transform="matrix(1,0,0,1,306.52,41.9192)">
                <path d="M0,-39.248L-1.098,-39.206C-12.484,-38.772 -22.509,-36.595 -28.601,-33.232L-30.415,-32.231L-28.539,-31.35C-22.634,-28.577 -18.965,-23.022 -18.965,-16.854C-18.965,-14.131 -19.703,-11.437 -21.1,-9.062L-21.565,-8.27L-20.845,-7.698C-18.482,-5.827 -16.695,-3.402 -15.676,-0.686L-15.419,0L-3.061,0L-6.325,-1.963C-11.879,-5.302 -15.195,-11.158 -15.195,-17.628C-15.195,-26.155 -9.154,-33.66 -0.832,-35.473L0,-35.654L0,-36.505L0,-38.149L0,-39.248ZM-1.058,-38.149L-1.058,-36.505C-9.745,-34.613 -16.252,-26.883 -16.252,-17.628C-16.252,-10.592 -12.49,-4.436 -6.87,-1.057L-14.687,-1.057C-15.786,-3.99 -17.706,-6.561 -20.188,-8.527C-18.735,-10.996 -17.908,-13.833 -17.908,-16.854C-17.908,-23.62 -22.055,-29.473 -28.09,-32.307C-22.327,-35.487 -12.487,-37.714 -1.058,-38.149" style="fill:rgb(242,235,213);fill-rule:nonzero;"/>
            </g>
        </g>
        <g transform="matrix(4.16667,0,0,4.16667,0,0)">
            <g transform="matrix(1,0,0,1,328.75,20.3413)">
                <path d="M0,3.95C0,-5.305 -6.508,-13.035 -15.195,-14.927L-15.195,-16.571C-3.765,-16.136 6.075,-13.909 11.838,-10.729C5.802,-7.895 1.655,-2.042 1.655,4.723C1.655,7.744 2.484,10.582 3.937,13.051C1.454,15.017 -0.466,17.588 -1.566,20.521L-9.381,20.521C-3.762,17.142 0,10.986 0,3.95" style="fill:rgb(95,61,28);fill-rule:nonzero;"/>
            </g>
        </g>
        <g transform="matrix(4.16667,0,0,4.16667,0,0)">
            <g transform="matrix(1,0,0,1,312.498,41.9192)">
                <path d="M0,-39.248L0,-35.654L0.832,-35.473C9.154,-33.66 15.194,-26.155 15.194,-17.628C15.194,-11.158 11.879,-5.302 6.325,-1.963L3.062,0L15.418,0L15.675,-0.686C16.694,-3.402 18.481,-5.827 20.845,-7.698L21.566,-8.269L21.099,-9.062C19.702,-11.438 18.965,-14.132 18.965,-16.854C18.965,-23.022 22.633,-28.577 28.538,-31.35L30.414,-32.231L28.601,-33.232C22.509,-36.595 12.484,-38.772 1.098,-39.206L0,-39.248ZM1.057,-38.149C12.487,-37.714 22.327,-35.487 28.09,-32.307C22.054,-29.473 17.907,-23.62 17.907,-16.854C17.907,-13.833 18.736,-10.996 20.188,-8.527C17.706,-6.561 15.786,-3.99 14.686,-1.057L6.871,-1.057C12.49,-4.436 16.252,-10.592 16.252,-17.628C16.252,-26.883 9.744,-34.613 1.057,-36.505L1.057,-38.149" style="fill:rgb(242,235,213);fill-rule:nonzero;"/>
            </g>
        </g>
        <g transform="matrix(4.16667,0,0,4.16667,0,0)">
            <g transform="matrix(1,0,0,1,327.184,56.533)">
                <path d="M0,-15.727C0.511,-17.089 1.206,-18.369 2.045,-19.55C3.28,-13.972 7.373,-9.378 12.831,-7.191C6.452,-0.576 -4.822,3.823 -17.675,3.823C-30.527,3.823 -41.802,-0.576 -48.181,-7.191C-42.724,-9.378 -38.63,-13.973 -37.395,-19.55C-36.556,-18.369 -35.86,-17.089 -35.35,-15.727L0,-15.727Z" style="fill:rgb(191,82,35);fill-rule:nonzero;"/>
            </g>
        </g>
        <g transform="matrix(4.16667,0,0,4.16667,0,0)">
            <g transform="matrix(0,-1,-1,0,309.508,4.9747)">
                <path d="M-19.323,-19.324C-29.995,-19.324 -38.647,-10.673 -38.647,-0.001C-38.647,10.672 -29.995,19.323 -19.323,19.323C-8.651,19.323 0,10.672 0,-0.001C0,-10.673 -8.651,-19.324 -19.323,-19.324" style="fill:rgb(242,235,213);fill-rule:nonzero;"/>
            </g>
        </g>
        <g transform="matrix(4.16667,0,0,4.16667,0,0)">
            <g transform="matrix(0,-1,-1,0,309.57,7.5469)">
                <path d="M-16.762,-16.762C-26.019,-16.762 -33.524,-9.258 -33.524,0C-33.524,9.258 -26.019,16.762 -16.762,16.762C-7.505,16.762 0,9.258 0,0C0,-9.258 -7.505,-16.762 -16.762,-16.762" style="fill:white;fill-rule:nonzero;"/>
            </g>
        </g>
        <g transform="matrix(4.16667,0,0,4.16667,0,0)">
            <g transform="matrix(1,0,0,1,309.509,40.7142)">
                <path d="M0,-32.833C-9.053,-32.833 -16.417,-25.469 -16.417,-16.416C-16.417,-7.364 -9.053,0 0,0C9.052,0 16.417,-7.364 16.417,-16.416C16.417,-25.469 9.052,-32.833 0,-32.833M0,0.793C-9.49,0.793 -17.21,-6.927 -17.21,-16.416C-17.21,-25.906 -9.49,-33.626 0,-33.626C9.489,-33.626 17.209,-25.906 17.209,-16.416C17.209,-6.927 9.489,0.793 0,0.793" style="fill:rgb(95,61,28);fill-rule:nonzero;"/>
            </g>
        </g>
        <g transform="matrix(4.16667,0,0,4.16667,0,0)">
            <g transform="matrix(1,0,0,1,357.039,62.4699)">
                <path d="M0,-30.597L-1.03,-25.945C-2.104,-21.104 -5.658,-17.046 -10.54,-15.09L-13.456,-13.922L-11.275,-11.66C-4.234,-4.359 7.738,0 20.752,0C33.766,0 45.739,-4.359 52.78,-11.661L54.961,-13.923L52.044,-15.091C47.163,-17.046 43.608,-21.103 42.536,-25.944L41.505,-30.595L38.748,-26.711C38.081,-25.772 37.506,-24.789 37.028,-23.778L4.477,-23.778C3.999,-24.789 3.424,-25.772 2.758,-26.711L0,-30.597ZM1.033,-25.487C1.872,-24.306 2.566,-23.026 3.077,-21.664L38.428,-21.664C38.938,-23.026 39.634,-24.305 40.472,-25.487C41.708,-19.909 45.801,-15.315 51.259,-13.128C44.879,-6.513 33.605,-2.114 20.752,-2.114C7.9,-2.114 -3.374,-6.513 -9.754,-13.128C-4.296,-15.315 -0.203,-19.909 1.033,-25.487" style="fill:rgb(242,235,213);fill-rule:nonzero;"/>
            </g>
        </g>
        <g transform="matrix(4.16667,0,0,4.16667,0,0)">
            <g transform="matrix(1,0,0,1,357.556,61.4126)">
                <path d="M0,-26.985L-0.515,-24.659C-1.663,-19.477 -5.457,-15.138 -10.663,-13.051L-12.121,-12.467L-11.031,-11.337C-4.186,-4.238 7.503,0 20.235,0C32.969,0 44.657,-4.238 51.503,-11.337L52.593,-12.468L51.135,-13.052C45.929,-15.138 42.136,-19.476 40.987,-24.658L40.472,-26.983L39.093,-25.042C38.33,-23.966 37.693,-22.833 37.195,-21.664L3.275,-21.664C2.778,-22.833 2.142,-23.966 1.379,-25.042L0,-26.985ZM0.517,-24.43C1.355,-23.249 2.05,-21.969 2.561,-20.607L37.911,-20.607C38.422,-21.969 39.117,-23.248 39.955,-24.429C41.191,-18.852 45.284,-14.257 50.742,-12.071C44.362,-5.455 33.089,-1.057 20.235,-1.057C7.384,-1.057 -3.891,-5.455 -10.271,-12.07C-4.812,-14.257 -0.72,-18.852 0.517,-24.43" style="fill:rgb(95,61,28);fill-rule:nonzero;"/>
            </g>
        </g>
        <g transform="matrix(4.16667,0,0,4.16667,0,0)">
            <g transform="matrix(1,0,0,1,348.673,46.6129)">
                <path d="M0,2.989C6.601,9.244 17.377,12.95 29.119,12.95C40.861,12.95 51.637,9.244 58.237,2.989C53.601,0.799 50.109,-3.067 48.553,-7.703C48.153,-6.996 47.813,-6.269 47.536,-5.528L47.343,-5.014L10.895,-5.014L10.702,-5.528C10.424,-6.269 10.084,-6.996 9.686,-7.703C8.128,-3.067 4.637,0.799 0,2.989M29.119,14.535C16.457,14.535 4.839,10.327 -1.958,3.28L-2.775,2.431L-1.683,1.993C3.605,-0.125 7.459,-4.534 8.626,-9.802L9.012,-11.546L10.046,-10.089C10.833,-8.981 11.483,-7.809 11.983,-6.6L46.254,-6.6C46.755,-7.809 47.405,-8.981 48.192,-10.089L49.227,-11.545L49.612,-9.801C50.779,-4.534 54.632,-0.125 59.919,1.993L61.013,2.431L60.195,3.279C53.398,10.327 41.781,14.535 29.119,14.535" style="fill:rgb(242,235,213);fill-rule:nonzero;"/>
            </g>
        </g>
        <g transform="matrix(4.16667,0,0,4.16667,0,0)">
            <g transform="matrix(1,0,0,1,358.551,20.3413)">
                <path d="M0,3.95C0,-5.305 6.507,-13.035 15.194,-14.927L15.194,-16.571C3.765,-16.136 -6.075,-13.909 -11.838,-10.729C-5.803,-7.895 -1.656,-2.042 -1.656,4.723C-1.656,7.744 -2.484,10.582 -3.937,13.051C-1.455,15.017 0.465,17.588 1.565,20.521L9.382,20.521C3.761,17.142 0,10.986 0,3.95" style="fill:rgb(95,61,28);fill-rule:nonzero;"/>
            </g>
        </g>
        <g transform="matrix(4.16667,0,0,4.16667,0,0)">
            <g transform="matrix(1,0,0,1,374.802,41.9192)">
                <path d="M0,-39.248L-1.097,-39.206C-12.483,-38.772 -22.508,-36.595 -28.6,-33.232L-30.414,-32.231L-28.538,-31.35C-22.633,-28.577 -18.964,-23.022 -18.964,-16.854C-18.964,-14.131 -19.702,-11.437 -21.099,-9.062L-21.564,-8.27L-20.844,-7.698C-18.481,-5.827 -16.694,-3.402 -15.675,-0.686L-15.418,0L-3.06,0L-6.325,-1.963C-11.879,-5.302 -15.194,-11.158 -15.194,-17.628C-15.194,-26.155 -9.154,-33.66 -0.832,-35.473L0,-35.654L0,-36.505L0,-38.149L0,-39.248ZM-1.057,-38.149L-1.057,-36.505C-9.744,-34.613 -16.251,-26.883 -16.251,-17.628C-16.251,-10.592 -12.49,-4.436 -6.869,-1.057L-14.686,-1.057C-15.786,-3.99 -17.706,-6.561 -20.187,-8.527C-18.735,-10.996 -17.907,-13.833 -17.907,-16.854C-17.907,-23.62 -22.054,-29.473 -28.089,-32.307C-22.326,-35.487 -12.486,-37.714 -1.057,-38.149" style="fill:rgb(242,235,213);fill-rule:nonzero;"/>
            </g>
        </g>
        <g transform="matrix(4.16667,0,0,4.16667,0,0)">
            <g transform="matrix(1,0,0,1,397.033,20.3413)">
                <path d="M0,3.95C0,-5.305 -6.507,-13.035 -15.194,-14.927L-15.194,-16.571C-3.764,-16.136 6.076,-13.909 11.838,-10.729C5.803,-7.895 1.656,-2.042 1.656,4.723C1.656,7.744 2.485,10.582 3.938,13.051C1.455,15.017 -0.465,17.588 -1.565,20.521L-9.381,20.521C-3.761,17.142 0,10.986 0,3.95" style="fill:rgb(95,61,28);fill-rule:nonzero;"/>
            </g>
        </g>
        <g transform="matrix(4.16667,0,0,4.16667,0,0)">
            <g transform="matrix(1,0,0,1,380.782,41.9192)">
                <path d="M0,-39.248L0,-35.654L0.832,-35.473C9.153,-33.66 15.194,-26.155 15.194,-17.628C15.194,-11.158 11.879,-5.302 6.325,-1.963L3.062,0L15.417,0L15.675,-0.686C16.694,-3.402 18.481,-5.827 20.845,-7.698L21.566,-8.269L21.099,-9.062C19.702,-11.438 18.964,-14.132 18.964,-16.854C18.964,-23.022 22.633,-28.577 28.538,-31.35L30.414,-32.231L28.601,-33.232C22.509,-36.595 12.484,-38.772 1.097,-39.206L0,-39.248ZM1.057,-38.149C12.487,-37.714 22.327,-35.487 28.089,-32.307C22.054,-29.473 17.907,-23.62 17.907,-16.854C17.907,-13.833 18.736,-10.996 20.188,-8.527C17.706,-6.561 15.786,-3.99 14.686,-1.057L6.87,-1.057C12.49,-4.436 16.251,-10.592 16.251,-17.628C16.251,-26.883 9.744,-34.613 1.057,-36.505L1.057,-38.149" style="fill:rgb(242,235,213);fill-rule:nonzero;"/>
            </g>
        </g>
        <g transform="matrix(4.16667,0,0,4.16667,0,0)">
            <g transform="matrix(1,0,0,1,395.467,56.533)">
                <path d="M0,-15.727C0.511,-17.089 1.206,-18.369 2.045,-19.55C3.28,-13.972 7.373,-9.378 12.831,-7.191C6.451,-0.576 -4.822,3.823 -17.675,3.823C-30.527,3.823 -41.802,-0.576 -48.182,-7.191C-42.724,-9.378 -38.63,-13.973 -37.395,-19.55C-36.556,-18.369 -35.861,-17.089 -35.35,-15.727L0,-15.727Z" style="fill:rgb(191,82,35);fill-rule:nonzero;"/>
            </g>
        </g>
        <g transform="matrix(4.16667,0,0,4.16667,0,0)">
            <g transform="matrix(0,-1,-1,0,377.792,4.9747)">
                <path d="M-19.323,-19.324C-29.995,-19.324 -38.647,-10.673 -38.647,0C-38.647,10.672 -29.995,19.323 -19.323,19.323C-8.651,19.323 0,10.672 0,0C0,-10.673 -8.651,-19.324 -19.323,-19.324" style="fill:rgb(242,235,213);fill-rule:nonzero;"/>
            </g>
        </g>
        <g transform="matrix(4.16667,0,0,4.16667,0,0)">
            <g transform="matrix(0,-1,-1,0,377.853,7.5469)">
                <path d="M-16.762,-16.762C-26.019,-16.762 -33.524,-9.258 -33.524,0C-33.524,9.258 -26.019,16.762 -16.762,16.762C-7.505,16.762 0,9.258 0,0C0,-9.258 -7.505,-16.762 -16.762,-16.762" style="fill:white;fill-rule:nonzero;"/>
            </g>
        </g>
        <g transform="matrix(4.16667,0,0,4.16667,0,0)">
            <g transform="matrix(1,0,0,1,377.791,40.7142)">
                <path d="M0,-32.833C-9.052,-32.833 -16.416,-25.469 -16.416,-16.416C-16.416,-7.364 -9.052,0 0,0C9.053,0 16.417,-7.364 16.417,-16.416C16.417,-25.469 9.053,-32.833 0,-32.833M0,0.793C-9.489,0.793 -17.209,-6.927 -17.209,-16.416C-17.209,-25.906 -9.489,-33.626 0,-33.626C9.49,-33.626 17.21,-25.906 17.21,-16.416C17.21,-6.927 9.49,0.793 0,0.793" style="fill:rgb(95,61,28);fill-rule:nonzero;"/>
            </g>
        </g>
        <g transform="matrix(4.16667,0,0,4.16667,0,0)">
            <g transform="matrix(1,0,0,1,158.774,112.644)">
                <path d="M0,-20.04C-18.068,-20.04 -33.755,-23.37 -41.65,-28.256C-43.813,-24.641 -45.059,-20.414 -45.059,-15.895C-45.059,-2.579 -34.265,8.216 -20.947,8.216L20.948,8.216C34.264,8.216 45.06,-2.579 45.06,-15.895C45.06,-20.414 43.813,-24.641 41.651,-28.256C33.755,-23.37 18.067,-20.04 0,-20.04" style="fill:white;fill-rule:nonzero;"/>
            </g>
        </g>
        <g transform="matrix(4.16667,0,0,4.16667,0,0)">
            <g transform="matrix(1,0,0,1,137.908,98.8571)">
                <path d="M0,21.173C-11.168,21.173 -20.785,13.211 -22.865,2.239L-23.29,0L-22.39,2.094C-18.973,10.046 -9.744,15.389 0.575,15.389L42.47,15.389C52.458,15.389 60.755,10.592 64.123,2.872L64.596,3.027C62.22,13.542 52.672,21.173 41.895,21.173L0,21.173Z" style="fill:rgb(95,61,28);fill-rule:nonzero;"/>
            </g>
        </g>
        <g transform="matrix(4.16667,0,0,4.16667,0,0)">
            <g transform="matrix(1,0,0,1,113.948,120.28)">
                <path d="M0,-23.616L0.85,-19.137C2.953,-8.048 12.672,0 23.96,0L65.855,0C76.749,0 86.398,-7.713 88.8,-18.341L87.854,-18.651C84.527,-11.022 76.318,-6.283 66.431,-6.283L24.536,-6.283C14.315,-6.283 5.179,-11.566 1.8,-19.427L0,-23.616ZM1.341,-19.23C4.702,-11.408 13.823,-5.783 24.536,-5.783L66.431,-5.783C76.701,-5.783 85.014,-10.889 88.312,-18.45C85.994,-8.189 76.809,-0.5 65.855,-0.5L23.96,-0.5C12.732,-0.5 3.36,-8.579 1.341,-19.23" style="fill:rgb(94,62,28);fill-rule:nonzero;"/>
            </g>
        </g>
        <g transform="matrix(4.16667,0,0,4.16667,0,0)">
            <g transform="matrix(1,0,0,1,131.892,89.1585)">
                <path d="M0,-14.645C-3.114,-11.562 -7.643,-9.554 -12.727,-9.358C-13.105,-8.863 -13.465,-8.353 -13.807,-7.832C-3.601,-3.002 10.641,0 26.404,0C42.665,0 57.308,-3.193 67.571,-8.294C67.323,-8.655 67.066,-9.009 66.8,-9.356C66.568,-9.348 66.337,-9.338 66.103,-9.338C60.686,-9.338 55.834,-11.397 52.555,-14.645L0,-14.645Z" style="fill:rgb(95,61,28);fill-rule:nonzero;"/>
            </g>
        </g>
        <g transform="matrix(4.16667,0,0,4.16667,0,0)">
            <g transform="matrix(1,0,0,1,179.721,85.4707)">
                <path d="M0,34.306L-41.895,34.306C-53.124,34.306 -62.495,26.226 -64.515,15.576C-61.154,23.397 -52.033,29.022 -41.32,29.022L0.575,29.022C10.846,29.022 19.159,23.917 22.457,16.355C20.138,26.617 10.953,34.306 0,34.306M-62.199,0.41C-53.606,5.242 -37.979,8.217 -20.947,8.217C-3.917,8.217 11.71,5.242 20.304,0.41C21.735,3.081 22.612,6.013 22.908,9.028C22.853,19.815 13.282,27.938 0.575,27.938L-41.32,27.938C-54.208,27.938 -64.689,19.512 -64.811,9.119C-64.525,6.07 -63.644,3.107 -62.199,0.41M23.992,8.999C23.992,8.978 23.994,8.957 23.994,8.936L23.985,8.936C23.633,5.301 22.486,1.899 20.703,-1.083C12.807,3.803 -2.88,7.133 -20.947,7.133C-39.016,7.133 -54.703,3.803 -62.598,-1.083C-64.382,1.899 -65.529,5.301 -65.88,8.936L-65.9,8.936C-65.9,8.986 -65.896,9.034 -65.895,9.083C-65.961,9.807 -66.007,10.537 -66.007,11.278C-66.007,24.595 -55.212,35.389 -41.895,35.389L0,35.389C13.316,35.389 24.112,24.595 24.112,11.278C24.112,10.508 24.062,9.751 23.992,8.999" style="fill:rgb(95,61,28);fill-rule:nonzero;"/>
            </g>
        </g>
        <g transform="matrix(4.16667,0,0,4.16667,0,0)">
            <g transform="matrix(1,0,0,1,258.108,112.644)">
                <path d="M0,-20.04C-18.068,-20.04 -33.756,-23.37 -41.651,-28.256C-43.814,-24.641 -45.06,-20.414 -45.06,-15.895C-45.06,-2.579 -34.266,8.216 -20.948,8.216L20.947,8.216C34.264,8.216 45.059,-2.579 45.059,-15.895C45.059,-20.414 43.813,-24.641 41.65,-28.256C33.755,-23.37 18.066,-20.04 0,-20.04" style="fill:white;fill-rule:nonzero;"/>
            </g>
        </g>
        <g transform="matrix(4.16667,0,0,4.16667,0,0)">
            <g transform="matrix(1,0,0,1,237.241,98.8571)">
                <path d="M0,21.173C-11.168,21.173 -20.785,13.211 -22.865,2.239L-23.29,0L-22.39,2.094C-18.973,10.046 -9.744,15.389 0.575,15.389L42.47,15.389C52.459,15.389 60.755,10.592 64.122,2.872L64.596,3.027C62.22,13.542 52.673,21.173 41.895,21.173L0,21.173Z" style="fill:rgb(95,61,28);fill-rule:nonzero;"/>
            </g>
        </g>
        <g transform="matrix(4.16667,0,0,4.16667,0,0)">
            <g transform="matrix(1,0,0,1,213.281,120.28)">
                <path d="M0,-23.616L0.85,-19.137C2.952,-8.048 12.671,0 23.96,0L65.855,0C76.749,0 86.398,-7.713 88.8,-18.341L87.854,-18.651C84.527,-11.022 76.318,-6.283 66.43,-6.283L24.536,-6.283C14.315,-6.283 5.178,-11.566 1.8,-19.427L0,-23.616ZM1.341,-19.23C4.702,-11.408 13.823,-5.783 24.536,-5.783L66.43,-5.783C76.701,-5.783 85.014,-10.889 88.312,-18.45C85.994,-8.189 76.808,-0.5 65.855,-0.5L23.96,-0.5C12.732,-0.5 3.36,-8.579 1.341,-19.23" style="fill:rgb(94,62,28);fill-rule:nonzero;"/>
            </g>
        </g>
        <g transform="matrix(4.16667,0,0,4.16667,0,0)">
            <g transform="matrix(1,0,0,1,231.225,89.1585)">
                <path d="M0,-14.645C-3.113,-11.562 -7.643,-9.554 -12.727,-9.358C-13.104,-8.863 -13.464,-8.353 -13.806,-7.832C-3.601,-3.002 10.641,0 26.404,0C42.666,0 57.308,-3.193 67.571,-8.294C67.323,-8.655 67.066,-9.009 66.801,-9.356C66.569,-9.348 66.337,-9.338 66.104,-9.338C60.686,-9.338 55.835,-11.397 52.555,-14.645L0,-14.645Z" style="fill:rgb(95,61,28);fill-rule:nonzero;"/>
            </g>
        </g>
        <g transform="matrix(4.16667,0,0,4.16667,0,0)">
            <g transform="matrix(1,0,0,1,279.055,85.4707)">
                <path d="M0,34.306L-41.896,34.306C-53.123,34.306 -62.495,26.226 -64.515,15.576C-61.154,23.397 -52.033,29.022 -41.32,29.022L0.575,29.022C10.846,29.022 19.158,23.917 22.457,16.355C20.138,26.617 10.953,34.306 0,34.306M-62.199,0.41C-53.606,5.242 -37.979,8.217 -20.947,8.217C-3.918,8.217 11.71,5.242 20.304,0.41C21.735,3.081 22.611,6.013 22.907,9.028C22.853,19.815 13.282,27.938 0.575,27.938L-41.32,27.938C-54.209,27.938 -64.689,19.512 -64.811,9.119C-64.525,6.07 -63.645,3.107 -62.199,0.41M23.992,8.999C23.992,8.978 23.993,8.957 23.993,8.936L23.985,8.936C23.634,5.301 22.486,1.899 20.703,-1.083C12.808,3.803 -2.881,7.133 -20.947,7.133C-39.016,7.133 -54.703,3.803 -62.598,-1.083C-64.382,1.899 -65.529,5.301 -65.88,8.936L-65.9,8.936C-65.9,8.986 -65.896,9.034 -65.896,9.083C-65.961,9.807 -66.007,10.537 -66.007,11.278C-66.007,24.595 -55.213,35.389 -41.896,35.389L0,35.389C13.316,35.389 24.111,24.595 24.111,11.278C24.111,10.508 24.062,9.751 23.992,8.999" style="fill:rgb(95,61,28);fill-rule:nonzero;"/>
            </g>
        </g>
        <g transform="matrix(4.16667,0,0,4.16667,0,0)">
            <g transform="matrix(1,0,0,1,358.108,112.644)">
                <path d="M0,-20.04C-18.068,-20.04 -33.756,-23.37 -41.651,-28.256C-43.814,-24.641 -45.06,-20.414 -45.06,-15.895C-45.06,-2.579 -34.266,8.216 -20.948,8.216L20.947,8.216C34.264,8.216 45.059,-2.579 45.059,-15.895C45.059,-20.414 43.813,-24.641 41.65,-28.256C33.755,-23.37 18.066,-20.04 0,-20.04" style="fill:white;fill-rule:nonzero;"/>
            </g>
        </g>
        <g transform="matrix(4.16667,0,0,4.16667,0,0)">
            <g transform="matrix(1,0,0,1,337.241,98.8571)">
                <path d="M0,21.173C-11.169,21.173 -20.785,13.211 -22.866,2.239L-23.29,0L-22.391,2.094C-18.973,10.046 -9.744,15.389 0.575,15.389L42.47,15.389C52.459,15.389 60.755,10.592 64.122,2.872L64.596,3.027C62.22,13.542 52.673,21.173 41.895,21.173L0,21.173Z" style="fill:rgb(95,61,28);fill-rule:nonzero;"/>
            </g>
        </g>
        <g transform="matrix(4.16667,0,0,4.16667,0,0)">
            <g transform="matrix(1,0,0,1,313.281,120.28)">
                <path d="M0,-23.616L0.85,-19.137C2.953,-8.048 12.672,0 23.961,0L65.855,0C76.749,0 86.398,-7.713 88.801,-18.341L87.854,-18.651C84.527,-11.022 76.318,-6.283 66.431,-6.283L24.536,-6.283C14.315,-6.283 5.179,-11.566 1.801,-19.427L0,-23.616ZM1.341,-19.23C4.702,-11.408 13.823,-5.783 24.536,-5.783L66.431,-5.783C76.701,-5.783 85.015,-10.889 88.313,-18.45C85.994,-8.189 76.809,-0.5 65.855,-0.5L23.961,-0.5C12.732,-0.5 3.36,-8.579 1.341,-19.23" style="fill:rgb(94,62,28);fill-rule:nonzero;"/>
            </g>
        </g>
        <g transform="matrix(4.16667,0,0,4.16667,0,0)">
            <g transform="matrix(1,0,0,1,331.225,89.1585)">
                <path d="M0,-14.645C-3.113,-11.562 -7.643,-9.554 -12.727,-9.358C-13.104,-8.863 -13.465,-8.353 -13.807,-7.832C-3.601,-3.002 10.641,0 26.404,0C42.666,0 57.308,-3.193 67.571,-8.294C67.323,-8.655 67.066,-9.009 66.801,-9.356C66.569,-9.348 66.337,-9.338 66.104,-9.338C60.686,-9.338 55.835,-11.397 52.555,-14.645L0,-14.645Z" style="fill:rgb(95,61,28);fill-rule:nonzero;"/>
            </g>
        </g>
        <g transform="matrix(4.16667,0,0,4.16667,0,0)">
            <g transform="matrix(1,0,0,1,379.055,85.4707)">
                <path d="M0,34.306L-41.896,34.306C-53.123,34.306 -62.495,26.226 -64.515,15.576C-61.153,23.397 -52.033,29.022 -41.32,29.022L0.575,29.022C10.846,29.022 19.158,23.917 22.457,16.355C20.138,26.617 10.953,34.306 0,34.306M-62.199,0.41C-53.606,5.242 -37.979,8.217 -20.947,8.217C-3.918,8.217 11.71,5.242 20.304,0.41C21.735,3.081 22.611,6.013 22.907,9.028C22.853,19.815 13.282,27.938 0.575,27.938L-41.32,27.938C-54.209,27.938 -64.688,19.512 -64.812,9.119C-64.524,6.07 -63.645,3.107 -62.199,0.41M23.992,8.999C23.992,8.978 23.993,8.957 23.993,8.936L23.985,8.936C23.634,5.301 22.486,1.899 20.703,-1.083C12.808,3.803 -2.881,7.133 -20.947,7.133C-39.016,7.133 -54.703,3.803 -62.599,-1.083C-64.383,1.899 -65.529,5.301 -65.881,8.936L-65.9,8.936C-65.9,8.986 -65.896,9.034 -65.896,9.083C-65.962,9.807 -66.007,10.537 -66.007,11.278C-66.007,24.595 -55.213,35.389 -41.896,35.389L0,35.389C13.316,35.389 24.111,24.595 24.111,11.278C24.111,10.508 24.062,9.751 23.992,8.999" style="fill:rgb(95,61,28);fill-rule:nonzero;"/>
            </g>
        </g>
        <g transform="matrix(4.16667,0,0,4.16667,0,0)">
            <g transform="matrix(1,0,0,1,379.711,107.113)">
                <path d="M0,7.383L-21.604,7.383L-21.604,12.667L-0.575,12.667C10.378,12.667 19.563,4.978 21.882,-5.284C18.584,2.278 10.271,7.383 0,7.383" style="fill:rgb(191,82,35);fill-rule:nonzero;"/>
            </g>
        </g>
        <g transform="matrix(4.16667,0,0,4.16667,0,0)">
            <g transform="matrix(-1,0,0,1,715.132,84.096)">
                <rect x="357.024" y="9.591" width="1.084" height="19.722" style="fill:rgb(95,61,28);"/>
            </g>
        </g>
        <g transform="matrix(4.16667,0,0,4.16667,0,0)">
            <g transform="matrix(1,0,0,1,59.2738,112.838)">
                <path d="M0,-20.04C-18.068,-20.04 -33.756,-23.37 -41.651,-28.256C-43.814,-24.641 -45.06,-20.414 -45.06,-15.895C-45.06,-2.579 -34.265,8.216 -20.948,8.216L20.947,8.216C34.264,8.216 45.059,-2.579 45.059,-15.895C45.059,-20.414 43.813,-24.641 41.65,-28.256C33.755,-23.37 18.067,-20.04 0,-20.04" style="fill:white;fill-rule:nonzero;"/>
            </g>
        </g>
        <g transform="matrix(4.16667,0,0,4.16667,0,0)">
            <g transform="matrix(1,0,0,1,38.408,99.051)">
                <path d="M0,21.173C-11.169,21.173 -20.785,13.21 -22.865,2.239L-23.29,0L-22.39,2.094C-18.973,10.047 -9.744,15.389 0.575,15.389L42.47,15.389C52.458,15.389 60.754,10.593 64.122,2.872L64.596,3.027C62.22,13.542 52.673,21.173 41.895,21.173L0,21.173Z" style="fill:rgb(95,61,28);fill-rule:nonzero;"/>
            </g>
        </g>
        <g transform="matrix(4.16667,0,0,4.16667,0,0)">
            <g transform="matrix(1,0,0,1,14.4471,120.474)">
                <path d="M0,-23.616L0.85,-19.137C2.953,-8.048 12.672,0 23.96,0L65.855,0C76.749,0 86.398,-7.713 88.8,-18.341L87.855,-18.651C84.527,-11.023 76.318,-6.284 66.431,-6.284L24.536,-6.284C14.315,-6.284 5.179,-11.566 1.8,-19.428L0,-23.616ZM1.341,-19.23C4.702,-11.408 13.823,-5.784 24.536,-5.784L66.431,-5.784C76.701,-5.784 85.014,-10.889 88.313,-18.451C85.994,-8.189 76.809,-0.5 65.855,-0.5L23.96,-0.5C12.732,-0.5 3.361,-8.58 1.341,-19.23" style="fill:rgb(94,62,28);fill-rule:nonzero;"/>
            </g>
        </g>
        <g transform="matrix(4.16667,0,0,4.16667,0,0)">
            <g transform="matrix(1,0,0,1,32.3914,89.3524)">
                <path d="M0,-14.645C-3.114,-11.562 -7.643,-9.554 -12.727,-9.358C-13.105,-8.862 -13.465,-8.353 -13.807,-7.832C-3.601,-3.001 10.641,0 26.404,0C42.666,0 57.308,-3.193 67.571,-8.294C67.323,-8.655 67.066,-9.008 66.8,-9.355C66.569,-9.348 66.337,-9.337 66.103,-9.337C60.686,-9.337 55.834,-11.397 52.555,-14.645L0,-14.645Z" style="fill:rgb(95,61,28);fill-rule:nonzero;"/>
            </g>
        </g>
        <g transform="matrix(4.16667,0,0,4.16667,0,0)">
            <g transform="matrix(1,0,0,1,80.221,85.6645)">
                <path d="M0,34.306L-41.895,34.306C-53.123,34.306 -62.495,26.226 -64.515,15.576C-61.153,23.397 -52.033,29.022 -41.32,29.022L0.575,29.022C10.846,29.022 19.159,23.917 22.458,16.355C20.138,26.617 10.953,34.306 0,34.306M-62.199,0.41C-53.606,5.242 -37.978,8.217 -20.947,8.217C-3.917,8.217 11.71,5.242 20.304,0.41C21.736,3.081 22.612,6.013 22.908,9.028C22.853,19.815 13.282,27.938 0.575,27.938L-41.32,27.938C-54.209,27.938 -64.688,19.513 -64.811,9.119C-64.524,6.07 -63.644,3.107 -62.199,0.41M23.992,8.999C23.992,8.978 23.994,8.957 23.994,8.936L23.985,8.936C23.634,5.301 22.486,1.899 20.703,-1.083C12.808,3.803 -2.88,7.133 -20.947,7.133C-39.015,7.133 -54.703,3.803 -62.598,-1.083C-64.382,1.899 -65.529,5.301 -65.88,8.936L-65.9,8.936C-65.9,8.986 -65.896,9.035 -65.896,9.084C-65.961,9.807 -66.007,10.537 -66.007,11.278C-66.007,24.595 -55.212,35.389 -41.895,35.389L0,35.389C13.316,35.389 24.112,24.595 24.112,11.278C24.112,10.508 24.063,9.751 23.992,8.999" style="fill:rgb(95,61,28);fill-rule:nonzero;"/>
            </g>
        </g>
        <g transform="matrix(1,0,0,1,-9.18257,-3.57642)">
            <text x="92.346px" y="228.046px" style="font-family:'Bolton';font-size:41.667px;fill:white;">Brawn</text>
        </g>
        <g transform="matrix(1,0,0,1,85.8975,131.224)">
            <text x="107.888px" y="228.046px" style="font-family:'Bolton';font-size:41.667px;fill:white;">Soak</text>
        </g>
        <g transform="matrix(1,0,0,1,500.483,131.224)">
            <text x="81.138px" y="228.046px" style="font-family:'Bolton';font-size:41.667px;fill:white;">W<tspan x="118.013px 143.929px " y="228.046px 228.046px ">ou</tspan>nds</text>
        </g>
        <g transform="matrix(1,0,0,1,914.372,130.416)">
            <text x="100.346px" y="228.046px" style="font-family:'Bolton';font-size:41.667px;fill:white;">S<tspan x="126.971px 143.054px " y="228.046px 228.046px ">tr</tspan>ain</text>
        </g>
        <g transform="matrix(1,0,0,1,1331.04,131.224)">
            <text x="81.554px" y="228.046px" style="font-family:'Bolton';font-size:41.667px;fill:white;">Def<tspan x="150.554px 172.138px " y="228.046px 228.046px ">en</tspan>se</text>
        </g>
        <g transform="matrix(1,0,0,1,1425.36,278.99)">
            <text x="90.044px" y="219.307px" style="font-family:'Bolton';font-size:20.833px;fill:white;">M<tspan x="109.877px 120.669px " y="219.307px 219.307px ">el</tspan>ee</text>
        </g>
        <g transform="matrix(1,0,0,1,1319.09,278.99)">
            <text x="81.274px" y="219.307px" style="font-family:'Bolton';font-size:20.833px;fill:white;">Ranged</text>
        </g>
        <g transform="matrix(1,0,0,1,275.007,-3.57642)">
            <text x="98.844px" y="226.298px" style="font-family:'Bolton';font-size:37.5px;fill:white;">Agility</text>
        </g>
        <g transform="matrix(1,0,0,1,559.521,-3.57642)">
            <text x="92.9px" y="226.298px" style="font-family:'Bolton';font-size:37.5px;fill:white;">Int<tspan x="136.625px 156.05px " y="226.298px 226.298px ">el</tspan>lect</text>
        </g>
        <g transform="matrix(1,0,0,1,844.032,-3.57642)">
            <text x="83.056px" y="226.298px" style="font-family:'Bolton';font-size:37.5px;fill:white;">Cunning</text>
        </g>
        <g transform="matrix(1,0,0,1,1128.55,-3.57642)">
            <text x="69.856px" y="226.298px" style="font-family:'Bolton';font-size:37.5px;fill:white;">Willpower</text>
        </g>
        <g transform="matrix(1,0,0,1,1413.06,-7.77744)">
            <text x="79.063px" y="226.298px" style="font-family:'Bolton';font-size:37.5px;fill:white;">Presence</text>
        </g>
        <text x="121px" y="143.271px" style="font-family:'Bolton';font-size:100px;">2</text>
        <g transform="matrix(1,0,0,1,284.431,0)">
            <text x="121px" y="143.271px" style="font-family:'Bolton';font-size:100px;">2</text>
        </g>
        <g transform="matrix(1,0,0,1,1137.97,0)">
            <text x="121px" y="143.271px" style="font-family:'Bolton';font-size:100px;">2</text>
        </g>
        <g transform="matrix(1,0,0,1,1422.48,0)">
            <text x="121px" y="143.271px" style="font-family:'Bolton';font-size:100px;">2</text>
        </g>
        <g id="_-3-" serif:id="(3)" transform="matrix(1,0,0,1,853.458,0)">
            <text x="118.7px" y="143.271px" style="font-family:'Bolton';font-size:100px;">3</text>
        </g>
        <g transform="matrix(1,0,0,1,509.908,336.654)">
            <text x="119.817px" y="129.707px" style="font-family:'Bolton';font-size:83.333px;">11</text>
        </g>
        <g transform="matrix(1,0,0,1,94.9855,337.462)">
            <text x="124.192px" y="129.707px" style="font-family:'Bolton';font-size:83.333px;">3</text>
        </g>
        <g transform="matrix(1,0,0,1,1289.9,336.654)">
            <text x="123.067px" y="129.707px" style="font-family:'Bolton';font-size:83.333px;">0</text>
        </g>
        <g transform="matrix(1,0,0,1,1390.35,337.462)">
            <text x="123.067px" y="129.707px" style="font-family:'Bolton';font-size:83.333px;">0</text>
        </g>
        <g transform="matrix(1,0,0,1,923.796,337.462)">
            <text x="119.817px" y="129.707px" style="font-family:'Bolton';font-size:83.333px;">11</text>
        </g>
        <g transform="matrix(1,0,0,1,568.945,-0.0801937)">
            <text x="132.55px" y="143.271px" style="font-family:'Bolton';font-size:100px;">1</text>
        </g>
    </g>
</svg>
